<?xml version="1.0" encoding="UTF-8"?>
<svg width="20px" height="20px" viewBox="0 0 20 20" version="1.1" xmlns="http://www.w3.org/2000/svg" xmlns:xlink="http://www.w3.org/1999/xlink">
    <title>交付报告</title>
    <g id="页面-1" stroke="none" stroke-width="1" fill="none" fill-rule="evenodd">
        <g id="交付报告">
            <rect id="矩形" fill="#D8D8D8" opacity="0" x="0" y="0" width="20" height="20"></rect>
            <path d="M17.9201717,12.3816938 C18.2055141,12.3786873 18.4802105,12.4915664 18.6830497,12.6952389 C18.8858888,12.8989114 19,13.1764533 19,13.4660194 L19,18.914909 C18.9998737,19.2933394 18.8053184,19.644323 18.4866805,19.8409527 C18.1680427,20.0375825 17.7714301,20.0514055 17.4402481,19.8774237 L15.0542124,18.6254655 L12.6613855,19.8774237 C12.3300251,20.0525184 11.9326066,20.0392792 11.6132767,19.842508 C11.2939469,19.6457368 11.0990853,19.2940128 11.0993694,18.914909 L11.0993694,13.4660194 C11.0993694,12.8671965 11.5777577,12.3816938 12.167879,12.3816938 L17.9246993,12.3816938 L17.9201717,12.3816938 Z M15.5522465,1.49361631e-06 C16.580574,-0.00126094332 17.4380206,0.797903114 17.5240083,1.83773979 L17.5240083,2.00083894 L17.5511738,9.66879574 C17.5470196,10.1186252 17.2024707,10.4894743 16.7601906,10.5201564 C16.3179104,10.5508386 15.9268305,10.231022 15.8623858,9.78595147 L15.8623858,9.66879574 L15.8306927,2.00773044 C15.8299867,1.87223436 15.7353181,1.75599629 15.6043136,1.72977277 L1.9581821,1.72977277 C1.82473578,1.73201274 1.7103557,1.82714931 1.68199959,1.95948985 L1.68199959,17.7938895 C1.68336867,17.9296141 1.77749656,18.0461434 1.90837869,18.0741444 L1.97402862,18.0741444 L8.23793804,18.0511727 C8.68123105,18.0553881 9.04669135,18.4050175 9.07692766,18.8538192 C9.10716398,19.3026208 8.79199466,19.6994673 8.35339139,19.7648623 L8.23793804,19.7648623 L1.97402862,19.787834 C0.945673827,19.7880966 0.088147617,18.9897749 1.47187379e-06,17.9500972 L1.47187379e-06,2.00773044 C-0.00124260422,0.96424002 0.786308845,0.0941501625 1.8110357,0.00689452531 L1.97402862,0.00689452531 L15.5522465,1.49361631e-06 Z M17.3859171,14.0127461 L12.6998699,14.0127461 L12.6998699,18.0259038 L14.3048977,17.1851393 C14.7133814,16.9701106 15.1931707,16.9433414 15.622424,17.1116298 L15.7786255,17.1851393 L17.3859171,18.028201 L17.3859171,14.0081518 L17.3859171,14.0127461 Z M9.54640919,7.81957308 C10.0152556,7.80244575 10.4090134,8.17424071 10.4258919,8.65000038 C10.4427704,9.12576006 10.076378,9.52532395 9.60753156,9.54245132 L4.40081247,9.54245132 C3.93196602,9.54245132 3.55189088,9.15677189 3.55189088,8.6810122 C3.55189088,8.20525251 3.93196602,7.81957308 4.40081247,7.81957308 L9.54640919,7.81957308 Z M12.8877646,3.79722667 C13.356611,3.78009933 13.7503688,4.15189429 13.7672473,4.62765398 C13.7841258,5.10341366 13.4177334,5.50297756 12.9488869,5.52010492 L4.40534006,5.52010492 C3.93649362,5.53723226 3.54273579,5.16543729 3.52585731,4.68967761 C3.50897883,4.21391793 3.87537125,3.81435404 4.34421769,3.79722667 L12.8877646,3.79722667 Z" id="形状" fill="#979392" fill-rule="nonzero"></path>
        </g>
    </g>
</svg>