<?xml version="1.0" encoding="UTF-8"?>
<svg width="20px" height="20px" viewBox="0 0 20 20" version="1.1" xmlns="http://www.w3.org/2000/svg" xmlns:xlink="http://www.w3.org/1999/xlink">
    <title>日志</title>
    <g id="页面-1" stroke="none" stroke-width="1" fill="none" fill-rule="evenodd">
        <g id="日志">
            <rect id="矩形" fill="#D8D8D8" opacity="0" x="0" y="0" width="20" height="20"></rect>
            <g id="编组-2" transform="translate(0.000000, 1.000000)" fill="#979392" fill-rule="nonzero">
                <path d="M1.44296339,1.45128975 L15.9439133,1.45128975 L15.9439133,5.11995992 L17.3940083,5.11995992 L17.3940083,1.12534434 C17.3940083,0.506610548 16.894934,0.00392431114 16.276722,0 L1.12441791,0 C0.503419047,0 0,0.503833824 0,1.12534434 L0,17.8413474 C0,18.1398072 0.118465119,18.426043 0.329334382,18.637086 C0.540203645,18.848129 0.826203741,18.9666917 1.12441791,18.9666917 L6.88913982,18.9666917 L6.88913982,17.5391936 L1.44296339,17.5391936 L1.44296339,1.45128975 Z" id="路径"></path>
                <path d="M3.58244781,4.00175306 L13.1530748,4.00175306 L13.1530748,5.53631355 L3.58244781,5.53631355 L3.58244781,4.00175306 Z M3.58244781,7.59666917 L12.0357885,7.59666917 L12.0357885,9.13122966 L3.58244781,9.13122966 L3.58244781,7.59666917 Z M3.58244781,10.9060857 L9.08805437,10.9060857 L9.08805437,12.4406461 L3.58244781,12.4406461 L3.58244781,10.9060857 Z M19.6571074,9.5 L17.042182,7.14938644 C16.8305799,6.96809771 16.5537101,6.88204244 16.276722,6.91147008 C16.0127243,6.93554988 15.7682571,7.06086795 15.5944642,7.26120711 L9.2877396,14.3487353 C8.99738342,14.6452225 8.88053483,15.0707219 8.97870294,15.4740796 L9.0500191,19 L12.2901494,18.6240922 C12.5767352,18.6496651 12.8607804,18.5528892 13.0722498,18.3576258 C13.1912551,18.2575489 13.30251,18.1485884 13.4050585,18.0316805 L16.6570748,14.4653143 C16.9240439,14.1498108 16.8937489,13.6794584 16.5885148,13.4008709 C16.2832807,13.1222834 15.8125202,13.135322 15.5231481,13.4303782 L12.2663773,16.9991235 L12.192684,17.0823942 L10.5286405,17.2751064 L10.5286405,15.305159 L14.7671969,10.5468319 L16.9066813,12.7642124 C17.0509376,12.9147093 17.2498199,13.0005051 17.4581929,13.0021287 L17.5318862,13.0021287 C17.7658143,13.0236938 17.996575,12.9358798 18.1570911,12.7642124 L19.7474412,10.9465314 C20.1174991,10.5220441 20.0761023,9.87827013 19.6547302,9.50475834 L19.6571074,9.5 Z M17.4914737,11.1654145 L15.7751318,9.40483347 L16.4193543,8.66967194 L18.2498021,10.3350864 L17.4914737,11.1654145 Z" id="形状"></path>
            </g>
        </g>
    </g>
</svg>