<?xml version="1.0" encoding="UTF-8"?>
<svg width="20px" height="20px" viewBox="0 0 20 20" version="1.1" xmlns="http://www.w3.org/2000/svg" xmlns:xlink="http://www.w3.org/1999/xlink">
    <title>概览</title>
    <g id="页面-1" stroke="none" stroke-width="1" fill="none" fill-rule="evenodd">
        <g id="概览">
            <rect id="矩形备份-6" fill="#D8D8D8" opacity="0" x="0" y="0" width="20" height="20"></rect>
            <path d="M1.41459331,2.77392024 L1.41459331,8.25993291 L6.90121143,8.25993291 L6.90121143,2.77392024 L1.41459331,2.77392024 Z M0.72518781,1.41195798 L7.56676209,1.41195798 C7.94355781,1.41195798 8.2490111,1.71737757 8.2490111,2.09413171 L8.2490111,8.93495098 C8.2490111,9.31170513 7.94355782,9.61712473 7.56676209,9.61712473 L0.72518781,9.61712473 C0.348392065,9.61712473 0.0429387618,9.31170514 0.0429387618,8.93495098 L0.0429387618,2.09413171 C0.0429387618,1.71830709 0.346938512,1.41327206 0.722802316,1.41195798 L0.72518781,1.41195798 Z M1.3644981,13.1567955 L1.3644981,18.6428081 L6.85111622,18.6428081 L6.85111622,13.1567955 L1.3644981,13.1567955 Z M0.682249048,11.7948332 L7.52620882,11.7948332 C7.90300455,11.7948332 8.20845783,12.1002528 8.20845783,12.477007 L8.20845783,19.315441 C8.20845783,19.6921952 7.90300455,19.9976148 7.52620882,19.9976148 L0.682249048,19.9976148 C0.305453303,19.9976148 0,19.6921952 0,19.315441 L0,12.477007 C0,12.1002528 0.305453303,11.7948332 0.682249048,11.7948332 Z M14.4894429,1.65048025 L10.6201843,5.51215613 L14.4894429,9.38098767 L18.351545,5.51215613 L14.4894429,1.65048025 Z M14.9665401,0.205035177 L19.799535,5.03749676 C19.9278723,5.16548067 20,5.33926782 20,5.5205044 C20,5.70174099 19.9278723,5.87552813 19.799535,6.00351204 L14.9713111,10.8264327 C14.7066616,11.0870918 14.2817661,11.0870918 14.0171166,10.8264327 L9.17457973,5.99397115 C9.04624246,5.86598724 8.97411475,5.6922001 8.97411475,5.51096351 C8.97411475,5.32972692 9.04624246,5.15593978 9.17457973,5.02795587 L14.0075747,0.195494286 C14.2722242,-0.065164762 14.6971196,-0.065164762 14.9617691,0.195494286 L14.9665401,0.205035177 Z M11.8129274,13.1567955 L11.8129274,18.6428081 L17.2422939,18.6428081 L17.2422939,13.1567955 L11.8129274,13.1567955 Z M11.1330639,11.7948332 L17.9269284,11.7948332 C18.3037241,11.7948332 18.6091774,12.1002528 18.6091774,12.477007 L18.6091774,19.3178262 C18.6091774,19.6945804 18.3037241,20 17.9269284,20 L11.1330639,20 C10.9521202,20 10.7785874,19.9281283 10.6506409,19.8001959 C10.5226944,19.6722635 10.450798,19.49875 10.450798,19.3178262 L10.450798,12.4793922 C10.4495436,12.2982759 10.5206104,12.124141 10.6482475,11.9956223 C10.7758847,11.8671036 10.9495377,11.7948332 11.1306784,11.7948332 L11.1330639,11.7948332 Z" id="形状" fill="#979392" fill-rule="nonzero"></path>
        </g>
    </g>
</svg>