<?xml version="1.0" encoding="UTF-8"?>
<svg width="20px" height="20px" viewBox="0 0 20 20" version="1.1" xmlns="http://www.w3.org/2000/svg" xmlns:xlink="http://www.w3.org/1999/xlink">
    <title>目标</title>
    <g id="页面-1" stroke="none" stroke-width="1" fill="none" fill-rule="evenodd">
        <g id="目标" fill="#979392" fill-rule="nonzero">
            <path d="M18.3933333,4.28571441 L14.4647619,4.28571441 L14.4647619,3.03523824 C14.4647619,2.14857157 13.7447619,1.42857157 12.8571429,1.42857157 L4.81238096,1.42857157 C4.72119198,0.614904454 4.0330467,-0.000243286309 3.21428571,7.21809386e-08 L1.60666667,7.21809386e-08 C0.719047634,7.21809386e-08 0,0.719047753 0,1.60761918 L0,18.3933334 C0,19.2809524 0.719047612,20.0000001 1.60761904,20.0000001 L3.21428571,20.0000001 C4.10285714,20.0000001 4.82190475,19.2809525 4.82190475,18.392381 L4.82190475,12.6780953 L12.8571429,12.6780953 L12.8571429,13.9285715 C12.8571429,14.8171429 13.5761905,15.5361906 14.4647619,15.5361906 L18.3933333,15.5361906 C19.2809524,15.5361906 20,14.8171429 20,13.9285715 L20,5.89238108 C20,5.00476202 19.2809524,4.28571441 18.392381,4.28571441 L18.3933333,4.28571441 Z M3.21333333,18.3933334 L1.60666667,18.3933334 L1.60666667,1.60761918 L3.21428571,1.60761918 L3.21428571,18.3933334 L3.21333333,18.3933334 Z M12.8571429,11.0714287 L4.82095239,11.0714287 L4.82095239,3.03523824 L12.8571429,3.03523824 L12.8571429,11.0714287 Z M18.3933333,13.9285715 L14.4647619,13.9285715 L14.4647619,5.89238108 L18.3933333,5.89238108 L18.3933333,13.9285715 Z" id="形状"></path>
        </g>
    </g>
</svg>