<?xml version="1.0" encoding="UTF-8"?>
<svg width="22px" height="22px" viewBox="0 0 22 22" version="1.1" xmlns="http://www.w3.org/2000/svg" xmlns:xlink="http://www.w3.org/1999/xlink">
    <title>组织</title>
    <g id="页面-1" stroke="none" stroke-width="1" fill="none" fill-rule="evenodd">
        <g id="组织" transform="translate(1.000000, 1.000000)">
            <rect id="矩形备份-8" fill="#D8D8D8" opacity="0" x="0" y="0" width="20" height="20"></rect>
            <path d="M18.8891304,13.3326087 L17.2217391,13.3326087 L17.2217391,10 C17.2306499,9.85023039 17.1751903,9.70378163 17.0693078,9.59748384 C16.9634252,9.49118605 16.8171946,9.4351537 16.6673913,9.44347826 L10.5565217,9.44347826 L10.5565217,6.66739132 L12.2217391,6.66739132 C12.8174755,6.62645349 13.2916709,6.15225808 13.3326087,5.55652175 L13.3326087,1.11086956 C13.2916709,0.515133232 12.8174755,0.0409378231 12.2217391,0 L7.77826088,0 C7.18252455,0.0409378231 6.70832914,0.515133232 6.66739132,1.11086956 L6.66739132,5.55652175 C6.70832914,6.15225808 7.18252455,6.62645349 7.77826088,6.66739132 L9.44347826,6.66739132 L9.44347826,9.44347826 L3.33260871,9.44347826 C3.18280537,9.4351537 3.0365748,9.49118605 2.93069223,9.59748384 C2.82480966,9.70378163 2.76935006,9.85023039 2.77826086,10 L2.77826086,13.3326087 L1.11086956,13.3326087 C0.515133232,13.3735465 0.0409378231,13.8477419 0,14.4434782 L0,18.8891304 C0.0409378231,19.4848668 0.515133232,19.9590622 1.11086956,20 L5.55652175,20 C6.15225808,19.9590622 6.62645349,19.4848668 6.66739132,18.8891304 L6.66739132,14.4434782 C6.62645349,13.8477419 6.15225808,13.3735465 5.55652175,13.3326087 L3.88913042,13.3326087 L3.88913042,10.5565217 L16.1108696,10.5565217 L16.1108696,13.3326087 L14.4434782,13.3326087 C13.8477419,13.3735465 13.3735465,13.8477419 13.3326087,14.4434782 L13.3326087,18.8891304 C13.3735465,19.4848668 13.8477419,19.9590622 14.4434782,20 L18.8891304,20 C19.4848668,19.9590622 19.9590622,19.4848668 20,18.8891304 L20,14.4434782 C19.9590622,13.8477419 19.4848668,13.3735465 18.8891304,13.3326087 L18.8891304,13.3326087 Z M7.77826088,5.55652175 L7.77826088,1.11086956 L12.2217391,1.11086956 L12.2217391,5.55652175 L7.77826088,5.55652175 Z M5.55652175,14.4434782 L5.55652175,18.8891304 L1.11086956,18.8891304 L1.11086956,14.4434782 L5.55652175,14.4434782 Z M18.8891304,18.8891304 L14.4434782,18.8891304 L14.4434782,14.4434782 L18.8891304,14.4434782 L18.8891304,18.8891304 Z" id="形状" stroke="#979392" stroke-width="0.2" fill="#979392" fill-rule="nonzero"></path>
        </g>
    </g>
</svg>