<?xml version="1.0" encoding="UTF-8"?>
<svg width="20px" height="20px" viewBox="0 0 20 20" version="1.1" xmlns="http://www.w3.org/2000/svg" xmlns:xlink="http://www.w3.org/1999/xlink">
    <title>统计</title>
    <g id="页面-1" stroke="none" stroke-width="1" fill="none" fill-rule="evenodd">
        <g id="统计">
            <rect id="矩形" fill="#FFFFFF" opacity="0" x="0" y="0" width="20" height="20"></rect>
            <path d="M6.00024056,20 L1.00084205,20 C0.448092248,20 0,19.5519616 0,18.9992783 L0,7.5006014 C0,6.94791808 0.448092248,6.49987973 1.00084205,6.49987973 L6.00024056,6.49987973 L6.00024056,1.00072167 C6.00024056,0.448038353 6.44833281,0 7.00108261,0 L13.0013232,0 C13.554073,0 14.0021652,0.448038353 14.0021652,1.00072167 L14.0021652,10.5003609 L19.0015638,10.5003609 C19.5251249,10.4988984 19.9608924,10.9020661 20,11.4241039 L20,18.9992783 C20,19.5231771 19.5962449,19.9585539 19.0737399,19.9975944 L6.00024056,19.9975944 L6.00024056,20 Z M6.00024056,8.00096222 L1.50126306,8.00096222 L1.50126306,18.4989175 L6.00024056,18.4989175 L6.00024056,8.00096222 Z M18.5107662,11.9990378 L14.0021652,11.9990378 L14.0021652,18.4941063 L18.5011427,18.4941063 L18.5011427,11.9990378 L18.5107662,11.9990378 Z M12.5009022,1.50108249 L7.50150365,1.50108249 L7.50150365,18.4989175 L12.5009022,18.4989175 L12.5009022,1.50108249 Z" id="形状" fill="#979392" fill-rule="nonzero"></path>
        </g>
    </g>
</svg>