<?xml version="1.0" encoding="UTF-8"?>
<svg width="20px" height="20px" viewBox="0 0 20 20" version="1.1" xmlns="http://www.w3.org/2000/svg" xmlns:xlink="http://www.w3.org/1999/xlink">
    <title>谱目</title>
    <g id="页面-1" stroke="none" stroke-width="1" fill="none" fill-rule="evenodd">
        <g id="谱目">
            <rect id="矩形备份-7" fill="#D8D8D8" opacity="0" x="0" y="0" width="20" height="20"></rect>
            <path d="M19.8412151,14.0335744 L19.9033904,14.1411479 C20.1069422,14.546558 19.9792037,15.0399677 19.604471,15.2957703 L19.49686,15.3603144 L10.4097105,19.9023073 C10.1986386,20.0096368 9.95373195,20.0293944 9.72817429,19.9572893 L9.59664974,19.9023073 L0.509500272,15.3603144 C0.0958467458,15.1389006 -0.0819444576,14.6396415 0.098700497,14.2067393 C0.279345452,13.7738371 0.759345378,13.5488754 1.20777596,13.6869486 L1.322561,13.7371496 L9.99600607,18.0759481 L18.6837992,13.7323686 C19.0906425,13.5290558 19.5851898,13.6577567 19.8412151,14.0335744 L19.8412151,14.0335744 Z M19.8412151,9.49158149 L19.9033904,9.59915501 C20.107247,10.0052809 19.9795605,10.4995112 19.604471,10.7561679 L19.49686,10.8183215 L10.4097105,15.3603144 C10.197969,15.4656006 9.95357134,15.4844598 9.72817429,15.4129059 L9.59664974,15.3603144 L0.509500272,10.8183215 C0.0796565167,10.6060533 -0.111274734,10.0964787 0.0733016301,9.65415516 C0.257877994,9.21183162 0.754455889,8.98894673 1.20777596,9.14495571 L1.322561,9.19276616 L9.99600607,13.5291741 L18.6837992,9.1879851 C19.0901837,8.98530366 19.5838317,9.11275101 19.8412151,9.48680043 L19.8412151,9.49158149 Z M9.58947569,0.0968277107 C9.84511023,-0.0322759036 10.1469019,-0.0322759036 10.4025364,0.0968277107 L19.4896859,4.63882064 C19.7976279,4.79336254 19.9920121,5.10834412 19.9920121,5.45279358 C19.9920121,5.79724304 19.7976279,6.11222463 19.4896859,6.26676652 L10.4025364,10.8087594 C10.1469019,10.937863 9.84511023,10.937863 9.58947569,10.8087594 L0.502326184,6.26676652 C0.194384223,6.11222463 0,5.79724304 0,5.45279358 C0,5.10834412 0.194384223,4.79336254 0.502326184,4.63882064 L9.58947569,0.0968277107 Z M9.99600607,1.9255775 L2.93433437,5.45876989 L9.99600607,8.98240016 L17.0576778,5.45876989 L9.99600607,1.9255775 Z" id="形状" fill="#979392" fill-rule="nonzero"></path>
        </g>
    </g>
</svg>