<?xml version="1.0" encoding="UTF-8"?>
<svg width="50px" height="50px" viewBox="0 0 50 50" version="1.1" xmlns="http://www.w3.org/2000/svg" xmlns:xlink="http://www.w3.org/1999/xlink">
    <title>已完工</title>
    <g id="页面-1" stroke="none" stroke-width="1" fill="none" fill-rule="evenodd">
        <g id="已完工">
            <circle id="椭圆形备份-2" fill="#FEEDEC" cx="25" cy="25" r="25"></circle>
            <g id="编组-7" transform="translate(11.000000, 11.000000)" fill="#FF1E10" fill-rule="nonzero">
                <path d="M9.67261905,25.1488095 L2.90178571,25.1488095 C1.30278088,25.1488095 0,23.8460286 0,22.2470238 L0,2.90178571 C0,1.30278088 1.30278088,4.54747351e-13 2.90178571,4.54747351e-13 L18.3779762,4.54747351e-13 C19.976981,4.54747351e-13 21.2797619,1.30278088 21.2797619,2.90178571 L21.2797619,8.70535714 C21.2797619,9.24037388 20.8475167,9.67261905 20.3125,9.67261905 C19.7774833,9.67261905 19.3452381,9.24037388 19.3452381,8.70535714 L19.3452381,2.90178571 C19.3452381,2.36979167 18.9099702,1.93452381 18.3779762,1.93452381 L2.90178571,1.93452381 C2.36979167,1.93452381 1.93452381,2.36979167 1.93452381,2.90178571 L1.93452381,22.2470238 C1.93452381,22.7790179 2.36979167,23.2142857 2.90178571,23.2142857 L9.67261905,23.2142857 C10.2076358,23.2142857 10.639881,23.6465309 10.639881,24.1815476 C10.639881,24.7165644 10.2076358,25.1488095 9.67261905,25.1488095 Z" id="路径"></path>
                <path d="M18.8616071,27.0833333 C16.664109,27.0833333 14.5996094,26.2279111 13.0489676,24.6742467 C11.4953032,23.1236049 10.639881,21.0591053 10.639881,18.8616071 C10.639881,16.664109 11.4953032,14.5996094 13.0489676,13.0489676 C14.5996094,11.4953032 16.664109,10.639881 18.8616071,10.639881 C21.0591053,10.639881 23.1236049,11.4953032 24.6742467,13.0489676 C26.2248884,14.6026321 27.0833333,16.6671317 27.0833333,18.8616071 C27.0833333,21.0591053 26.2279111,23.1236049 24.6742467,24.6742467 C23.1205822,26.2248884 21.0591053,27.0833333 18.8616071,27.0833333 Z M18.8616071,12.5744048 C15.3945778,12.5744048 12.5744048,15.3945778 12.5744048,18.8616071 C12.5744048,22.3286365 15.3945778,25.1488095 18.8616071,25.1488095 C22.3286365,25.1488095 25.1488095,22.3286365 25.1488095,18.8616071 C25.1488095,15.3945778 22.3286365,12.5744048 18.8616071,12.5744048 Z" id="形状"></path>
                <path d="M16.4434524,7.73809524 L4.83630952,7.73809524 C4.30129278,7.73809524 3.86904762,7.30585007 3.86904762,6.77083333 C3.86904762,6.23581659 4.30129278,5.80357143 4.83630952,5.80357143 L16.4434524,5.80357143 C16.9784691,5.80357143 17.4107143,6.23581659 17.4107143,6.77083333 C17.4107143,7.30585007 16.9784691,7.73809524 16.4434524,7.73809524 Z" id="路径"></path>
                <path d="M9.67261905,13.5416667 L4.83630952,13.5416667 C4.30129278,13.5416667 3.86904762,13.1094215 3.86904762,12.5744048 C3.86904762,12.039388 4.30129278,11.6071429 4.83630952,11.6071429 L9.67261905,11.6071429 C10.2076358,11.6071429 10.639881,12.039388 10.639881,12.5744048 C10.639881,13.1094215 10.2076358,13.5416667 9.67261905,13.5416667 Z" id="路径"></path>
                <path d="M7.73809524,19.3452381 L4.83630952,19.3452381 C4.30129278,19.3452381 3.86904762,18.9129929 3.86904762,18.3779762 C3.86904762,17.8429594 4.30129278,17.4107143 4.83630952,17.4107143 L7.73809524,17.4107143 C8.27311198,17.4107143 8.70535714,17.8429594 8.70535714,18.3779762 C8.70535714,18.9129929 8.27311198,19.3452381 7.73809524,19.3452381 Z" id="路径"></path>
                <path d="M19.3452381,22.2470238 C19.1548084,22.2470238 18.9674014,22.1926153 18.8071987,22.0837984 L15.9054129,20.1492746 C15.461077,19.8530506 15.3401693,19.2515346 15.6363932,18.8071987 C15.9326172,18.3628627 16.5341332,18.241955 16.9784691,18.5381789 L19.0369234,19.9104818 L21.4157831,15.944708 C21.6908482,15.4852586 22.2863188,15.3371466 22.7427455,15.6122117 C23.2021949,15.8872768 23.3503069,16.4797247 23.0752418,16.9391741 L20.1734561,21.7754836 C20.0374349,22.0021856 19.8137556,22.1623884 19.5568266,22.2228423 C19.4873047,22.2409784 19.41476,22.2470238 19.3452381,22.2470238 Z" id="路径"></path>
            </g>
        </g>
    </g>
</svg>