<?xml version="1.0" encoding="UTF-8"?>
<svg width="50px" height="50px" viewBox="0 0 50 50" version="1.1" xmlns="http://www.w3.org/2000/svg" xmlns:xlink="http://www.w3.org/1999/xlink">
    <title>未分配</title>
    <g id="页面-1" stroke="none" stroke-width="1" fill="none" fill-rule="evenodd">
        <g id="未分配">
            <circle id="椭圆形备份" fill="#FEEDEC" cx="25" cy="25" r="25"></circle>
            <path d="M38.5333728,20.4514918 C38.5306299,20.4487795 38.5278871,20.4433549 38.5251442,20.4406426 L31.6049441,12.6265387 C31.2703169,12.2305445 30.7985474,12.0027123 30.3020923,12 C30.2993494,12 30.2966066,12 30.2938637,12 C29.7974086,12 29.3228963,12.2278323 28.9827834,12.6238264 C28.6783275,12.9655748 28.5137567,13.4239516 28.5137567,13.9148759 L28.5137567,17.2103067 L25.8641676,17.2103067 C25.3786839,17.2103067 24.9864569,17.598164 24.9864569,18.0782391 C24.9864569,18.5583142 25.3786839,18.9461715 25.8641676,18.9461715 L29.3942103,18.9461715 C29.879694,18.9461715 30.271921,18.5583142 30.271921,18.0782391 L30.271921,13.9148759 C30.271921,13.8552055 30.2856352,13.8090966 30.2966066,13.784686 L37.1976068,21.5770916 C37.266178,21.6611725 37.266178,21.834759 37.1976068,21.91884 L30.3020923,29.7139579 C30.2856352,29.6841227 30.271921,29.6380138 30.271921,29.5756311 L30.271921,25.0542458 C30.271921,24.5741707 29.879694,24.1863134 29.3942103,24.1863134 L24.9864569,24.1863134 L21.4564143,24.1863134 L21.4564143,20.5328604 C21.4564143,19.4804924 20.6582461,18.6234091 19.6790501,18.6234091 C19.1743665,18.6234091 18.6971113,18.8458168 18.3679698,19.2309618 L11.4751981,27.0559149 C11.4724552,27.0586272 11.4697124,27.0613395 11.4669695,27.0640517 C10.8443435,27.7909451 10.8443435,28.9273941 11.4669695,29.6542875 C11.4697124,29.6597121 11.4751981,29.6651367 11.4806837,29.6678489 L18.3707126,37.3734613 C18.7053398,37.7694555 19.1771093,37.9972877 19.6708216,38 C19.6735644,38 19.6763073,38 19.6790501,38 C20.1755052,38 20.6500176,37.7721677 20.9901305,37.3761736 C21.2945863,37.0344252 21.4591571,36.5760484 21.4591571,36.0851241 L21.4591571,32.8303776 L24.1636031,32.8303776 C24.6490869,32.8303776 25.0413138,32.4425203 25.0413138,31.9624452 C25.0413138,31.4823701 24.6490869,31.0945128 24.1636031,31.0945128 L20.5787036,31.0945128 C20.0932198,31.0945128 19.7009929,31.4823701 19.7009929,31.9624452 L19.7009929,36.0905487 C19.7009929,36.1502191 19.6872787,36.196328 19.6763073,36.2207386 L12.8027355,28.5314 C12.7369072,28.447319 12.7369072,28.2737325 12.8027355,28.1896516 L19.6708216,20.397246 C19.6872787,20.4270812 19.7009929,20.4731901 19.7009929,20.5355727 L19.7009929,25.0569581 C19.7009929,25.5370332 20.0932198,25.9248905 20.5787036,25.9248905 L24.9864569,25.9248905 L28.5164996,25.9248905 L28.5164996,29.5783434 C28.5164996,30.6307115 29.3146677,31.4877947 30.2938637,31.4877947 C30.7985474,31.4877947 31.2758025,31.2680993 31.6022012,30.880242 L38.5224014,23.055289 C38.5251442,23.0525767 38.5278871,23.0471521 38.5306299,23.0444398 C39.1559988,22.3175464 39.1559988,21.1783851 38.5333728,20.4514918 Z" id="路径" fill="#FF1E10" fill-rule="nonzero"></path>
        </g>
    </g>
</svg>