<?xml version="1.0" encoding="UTF-8"?>
<svg width="50px" height="50px" viewBox="0 0 50 50" version="1.1" xmlns="http://www.w3.org/2000/svg" xmlns:xlink="http://www.w3.org/1999/xlink">
    <title>进行中</title>
    <g id="页面-1" stroke="none" stroke-width="1" fill="none" fill-rule="evenodd">
        <g id="进行中">
            <g id="编组-5">
                <circle id="椭圆形备份" fill="#FEEDEC" cx="25" cy="25" r="25"></circle>
                <path d="M37.6655802,21.7174776 C38.053219,21.6100618 38.3464487,21.2940422 38.4228808,20.901319 C38.4993129,20.5085959 38.3458098,20.1066734 38.0264406,19.8633061 C37.7070714,19.6199389 37.2767317,19.5769587 36.9150369,19.7523046 C36.5273981,19.8597203 36.2341685,20.17574 36.1577363,20.5684632 C36.0813042,20.9611863 36.2348074,21.3631088 36.5541765,21.606476 C36.8735457,21.8498433 37.3038854,21.8928235 37.6655802,21.7174776 L37.6655802,21.7174776 Z M38.1049226,23.9010031 C37.5185375,23.9010031 37.0431785,24.3735087 37.0431785,24.9563738 C37.0431785,25.5392389 37.5185375,26.0117445 38.1049226,26.0117445 C38.6913076,26.0117445 39.1666667,25.5392389 39.1666667,24.9563738 C39.1666667,24.3735087 38.6913076,23.9010031 38.1049226,23.9010031 Z M37.7937217,28.1406818 C37.4176671,28.0886753 37.0422656,28.2400377 36.8089273,28.5377523 C36.575589,28.8354669 36.5197636,29.2343037 36.6624799,29.5840249 C36.8051962,29.9337461 37.1247722,30.1812206 37.5008268,30.2332271 C37.8768814,30.2884841 38.2540274,30.1401252 38.4901977,29.8440358 C38.7263679,29.5479464 38.7856825,29.1491096 38.6457981,28.7977632 C38.5059137,28.4464168 38.1880822,28.1959388 37.8120276,28.1406818 L37.7937217,28.1406818 Z M34.8281606,32.6169092 C34.6563139,32.8447538 34.5882246,33.1336808 34.6403904,33.4136849 C34.6925561,33.6936889 34.8602169,33.9392206 35.1027496,34.0907889 C35.4297536,34.305316 35.8470577,34.3301399 36.1974676,34.1559096 C36.5478775,33.9816794 36.7781575,33.6348647 36.8015634,33.2461073 C36.8249693,32.85735 36.6379452,32.4857114 36.3109411,32.2711843 C36.0724256,32.1065713 35.7748674,32.0502244 35.4921695,32.1161382 C35.2094717,32.182052 34.9681573,32.3640423 34.8281606,32.6169092 L34.8281606,32.6169092 Z M32.0090469,35.4736884 C31.7694524,35.6340123 31.6090148,35.887363 31.5671929,36.1714299 C31.5253711,36.4554969 31.6060459,36.7439205 31.7893757,36.9657642 C32.0053237,37.2935226 32.3861655,37.4753965 32.7785379,37.4381463 C33.1709104,37.400896 33.5102317,37.1506527 33.6598589,36.7881881 C33.8094861,36.4257235 33.7447916,36.0106967 33.4918275,35.710237 C33.3333941,35.4748889 33.0835786,35.3156884 32.8022908,35.2708145 C32.521003,35.2259405 32.233615,35.2994406 32.0090469,35.4736884 L32.0090469,35.4736884 Z M28.4760019,37.3296851 C28.1987397,37.4077445 27.9673343,37.5981964 27.8384612,37.8543954 C27.7095881,38.1105945 27.6951497,38.4088786 27.7986824,38.6761925 C27.9196739,39.0337377 28.2233746,39.2999624 28.5953835,39.3745822 C28.9673924,39.4492021 29.3511924,39.3208807 29.6022098,39.0379554 C29.8532272,38.7550301 29.9333265,38.360484 29.812335,38.0029388 C29.7332293,37.7318407 29.5445346,37.5055053 29.2912367,37.377892 C29.0379388,37.2502788 28.7427344,37.2328226 28.4760019,37.3296851 L28.4760019,37.3296851 Z M24.5219204,37.9301546 C18.8538858,37.9653631 13.8542415,34.2484068 12.2867704,28.8340041 C10.7192992,23.4196013 12.9667148,17.6297316 17.7866548,14.6650113 C22.6065948,11.7002909 28.8222238,12.2845855 32.9975673,16.0948993 L31.6978461,16.0948993 C31.1923417,16.0948993 30.7825494,16.5022317 30.7825494,17.0047016 C30.7825494,17.5071716 31.1923417,17.9145039 31.6978461,17.9145039 L34.974608,17.9145039 C35.4801124,17.9145039 35.8899047,17.5071716 35.8899047,17.0047017 L35.8899047,13.7112173 C35.8899047,13.2087474 35.4801124,12.801415 34.974608,12.801415 C34.4691037,12.801415 34.0593114,13.2087474 34.0593114,13.7112173 L34.0593114,14.6210196 C29.2371981,10.3694676 22.1664868,9.8033344 16.7219193,13.2328603 C11.2773518,16.6623862 8.77345582,23.259552 10.5823636,29.4091182 C12.3912713,35.5586845 18.0762429,39.7759097 24.5219204,39.7498802 C25.0274248,39.7498802 25.437217,39.3424269 25.437217,38.8399569 C25.437217,38.337487 25.0274248,37.9301546 24.5219204,37.9301546 Z" id="形状" fill="#FF1E10" fill-rule="nonzero"></path>
            </g>
            <path d="M32.7918323,32.7068295 C32.9651095,32.5359991 33.0625755,32.3034574 33.0625755,32.0608699 C33.0625755,31.8182825 32.9651095,31.5857408 32.7918323,31.4149103 L25.8538837,24.5004128 L25.8538837,18.4775215 C25.8538837,17.9750516 25.4440915,17.5677192 24.9385871,17.5677192 C24.4330827,17.5677192 24.0232904,17.9750516 24.0232904,18.4775215 L24.0232904,24.9553139 C24.0267292,25.1952918 24.1254245,25.4241983 24.2978794,25.5921755 L31.510417,32.7614177 C31.6822791,32.9336548 31.9162251,33.0305357 32.1602776,33.0305357 C32.40433,33.0305357 32.638276,32.9336548 32.8101382,32.7614177 L32.7918323,32.7068295 Z" id="路径" fill="#FF1E10" fill-rule="nonzero"></path>
        </g>
    </g>
</svg>