<?xml version="1.0" encoding="UTF-8"?>
<svg width="20px" height="20px" viewBox="0 0 20 20" version="1.1" xmlns="http://www.w3.org/2000/svg" xmlns:xlink="http://www.w3.org/1999/xlink">
    <title>曲线图</title>
    <g id="页面-1" stroke="none" stroke-width="1" fill="none" fill-rule="evenodd">
        <g id="曲线图" fill="#979392" fill-rule="nonzero">
            <path d="M20,0 L15.9010077,0.45 L17.2506759,1.8 L12.8017697,7.24 L8.18290525,2.97 C7.87298144,2.68 7.38310188,2.68 7.06318054,2.96 L0.274849456,9.09 C-0.0650669753,9.4 -0.0950596016,9.93 0.214864203,10.27 C0.374824877,10.45 0.604768345,10.54 0.834711813,10.54 C1.03466265,10.54 1.2346135,10.47 1.39457417,10.33 L7.61304535,4.71 L12.3218877,9.06 C12.4918459,9.22 12.7217894,9.29 12.9417353,9.28 C13.1716788,9.26 13.3816271,9.15 13.5315903,8.98 L18.4303859,2.99 L19.5501106,4.11 L20,0 Z M2.60427676,20 L0.604768345,20 C0.274849456,20 0.00491581933,19.73 0.00491581933,19.4 L0.00491581933,12.6 C0.00491581933,12.27 0.274849456,12 0.604768345,12 L2.60427676,12 C2.93419565,12 3.20412929,12.27 3.20412929,12.6 L3.20412929,19.4 C3.20412929,19.73 2.93419565,20 2.60427676,20 Z" id="形状"></path>
            <path d="M8.20290033,20 L6.20339192,20 C5.87347303,20 5.60353939,19.73 5.60353939,19.4 L5.60353939,8.6 C5.60353939,8.27 5.87347303,8 6.20339192,8 L8.20290033,8 C8.53281922,8 8.80275286,8.27 8.80275286,8.6 L8.80275286,19.4 C8.80275286,19.73 8.53281922,20 8.20290033,20 L8.20290033,20 Z M13.8015239,20 L11.8020155,20 C11.4720966,20 11.202163,19.73 11.202163,19.4 L11.202163,11.6 C11.202163,11.27 11.4720966,11 11.8020155,11 L13.8015239,11 C14.1314428,11 14.4013764,11.27 14.4013764,11.6 L14.4013764,19.4 C14.4013764,19.73 14.1314428,20 13.8015239,20 Z M19.4001475,20 L17.4006391,20 C17.0707202,20 16.8007865,19.73 16.8007865,19.4 L16.8007865,6.6 C16.8007865,6.27 17.0707202,6 17.4006391,6 L19.4001475,6 C19.7300664,6 20,6.27 20,6.6 L20,19.4 C20,19.73 19.7300664,20 19.4001475,20 L19.4001475,20 Z" id="形状"></path>
        </g>
    </g>
</svg>