<?xml version="1.0" encoding="UTF-8"?>
<svg width="312px" height="71px" viewBox="0 0 312 71" version="1.1" xmlns="http://www.w3.org/2000/svg" xmlns:xlink="http://www.w3.org/1999/xlink">
    <title>Login</title>
    <defs>
        <polygon id="path-1" points="0 0 312 0 312 71 0 71"></polygon>
    </defs>
    <g id="页面-1" stroke="none" stroke-width="1" fill="none" fill-rule="evenodd">
        <g id="画板备份-2" transform="translate(-804.000000, -886.000000)">
            <g id="Login" transform="translate(804.000000, 886.000000)">
                <g id="编组备份">
                    <g id="编组">
                        <mask id="mask-2" fill="white">
                            <use xlink:href="#path-1"></use>
                        </mask>
                        <g id="Clip-2"></g>
                        <path d="M309.509975,57.7415343 C303.840562,58.3245045 299.320171,62.8432706 298.737131,68.5108017 L77.7504061,68.5108017 L75.73996,68.5108017 L13.2628688,68.5108017 C12.679705,62.8432706 8.15943821,58.3245045 2.49002494,57.7415343 L2.49002494,13.2585653 C8.15943821,12.6755951 12.679705,8.15682896 13.2628688,2.48917339 L298.737131,2.48917339 C299.320171,8.15682896 303.840562,12.6755951 309.509975,13.2585653 L309.509975,57.7415343 Z M310.754988,10.8330905 C305.466175,10.8330905 301.163411,6.53175586 301.163411,1.24457425 L301.163411,-2.48919828e-05 L10.8365885,-2.48919828e-05 L10.8365885,1.24457425 C10.8365885,6.53175586 6.53370093,10.8330905 1.24501247,10.8330905 L0,10.8330905 L0,60.1670091 L1.24501247,60.1670091 C6.53370093,60.1670091 10.8365885,64.4683437 10.8365885,69.7554009 L10.8365885,71 L75.73996,71 L77.7504061,71 L301.163411,71 L301.163411,69.7554009 C301.163411,64.4683437 305.466175,60.1670091 310.754988,60.1670091 L312,60.1670091 L312,10.8330905 L310.754988,10.8330905 Z" id="Fill-1" fill="#FFFFFF" mask="url(#mask-2)"></path>
                    </g>
                    <path d="M301.985527,16.8180529 C302.059478,16.8290471 302.133553,16.8389295 302.208002,16.8481942 C302.133553,16.8389295 302.059478,16.8290471 301.985527,16.8180529 L301.985527,16.8180529 Z M301.567843,16.7462818 C301.640548,16.7606113 301.713628,16.7738291 301.786956,16.7863056 C301.713503,16.7738291 301.640548,16.7606113 301.567843,16.7462818 L301.567843,16.7462818 Z M301.156383,16.6564754 C301.228093,16.6738932 301.300051,16.6904462 301.372384,16.7062581 C301.300051,16.6904462 301.228093,16.6738932 301.156383,16.6564754 L301.156383,16.6564754 Z M300.752019,16.5488807 C300.822484,16.5693867 300.893322,16.589275 300.964534,16.6081751 C300.893322,16.589275 300.822484,16.5693867 300.752019,16.5488807 L300.752019,16.5488807 Z M300.354876,16.4241152 C300.424221,16.4474624 300.49369,16.4706861 300.563656,16.4925509 C300.49369,16.4706861 300.424221,16.4475859 300.354876,16.4241152 L300.354876,16.4241152 Z M299.965452,16.2824261 C300.033427,16.3087381 300.101527,16.33505 300.170373,16.3600031 C300.101527,16.33505 300.033427,16.3087381 299.965452,16.2824261 L299.965452,16.2824261 Z M299.583747,16.1239369 C299.650601,16.1534607 299.717456,16.1828608 299.785057,16.2107786 C299.717456,16.1828608 299.650601,16.1534607 299.583747,16.1239369 L299.583747,16.1239369 Z M299.210383,15.9495124 C299.276117,15.9820008 299.341851,16.0146128 299.408456,16.0456188 C299.341851,16.0146128 299.276117,15.9820008 299.210383,15.9495124 L299.210383,15.9495124 Z M298.845858,15.7591524 C298.910596,15.7947291 298.974961,15.8304293 299.040695,15.8646472 C298.974961,15.8304293 298.910596,15.7947291 298.845858,15.7591524 L298.845858,15.7591524 Z M302.755038,17.1507196 C302.755038,17.0101423 302.64598,16.8951357 302.504925,16.882165 C302.472681,16.8792003 302.441183,16.8745061 302.409063,16.8711708 C302.523973,16.8829062 302.639008,16.894271 302.755038,16.9018063 L302.755038,17.1507196 Z M301.91083,55.1920766 C302.034703,55.1726824 302.159324,55.1560058 302.284567,55.1415528 C302.159324,55.1560058 302.034703,55.1726824 301.91083,55.1920766 L301.91083,55.1920766 Z M301.519165,55.2626123 C301.625733,55.2411181 301.733049,55.2216003 301.840987,55.203812 C301.733049,55.2216003 301.625733,55.2411181 301.519165,55.2626123 L301.519165,55.2626123 Z M301.079071,55.3613129 C301.197964,55.3315421 301.317854,55.3038714 301.438367,55.2785477 C301.317854,55.3038714 301.197964,55.3315421 301.079071,55.3613129 L301.079071,55.3613129 Z M300.692137,55.4676724 C300.792854,55.4377781 300.894318,55.4096132 300.996405,55.3830542 C300.894318,55.4096132 300.792854,55.4377781 300.692137,55.4676724 L300.692137,55.4676724 Z M300.276195,55.6018261 C300.389486,55.5622965 300.503649,55.5246198 300.618808,55.4892901 C300.503649,55.5244962 300.389486,55.5622965 300.276195,55.6018261 L300.276195,55.6018261 Z M299.89312,55.7451211 C299.98948,55.7067032 300.086587,55.6698912 300.184441,55.6346851 C300.086587,55.6698912 299.98948,55.7067032 299.89312,55.7451211 L299.89312,55.7451211 Z M299.504816,55.9101574 C299.612381,55.8614865 299.720693,55.814298 299.830249,55.7697036 C299.720693,55.814298 299.612381,55.8614865 299.504816,55.9101574 L299.504816,55.9101574 Z M299.121493,56.0935996 C299.216359,56.0455464 299.312221,55.9992226 299.40883,55.9542576 C299.312221,55.9992226 299.216359,56.0455464 299.121493,56.0935996 L299.121493,56.0935996 Z M298.767799,56.2830949 C298.869014,56.226271 298.970852,56.1705589 299.074184,56.1171939 C298.970852,56.1705589 298.869014,56.226271 298.767799,56.2830949 L298.767799,56.2830949 Z M302.755038,55.0981937 C302.626434,55.1065937 302.499074,55.1185762 302.371963,55.1321645 C302.41616,55.1274703 302.460231,55.122035 302.504552,55.117835 C302.645855,55.1048643 302.755038,54.9897342 302.755038,54.8490334 L302.755038,55.0981937 Z M17.8947074,63.0011586 C17.9057875,63.0745355 17.9158717,63.148036 17.9250844,63.2221541 C17.9158717,63.1481595 17.9057875,63.0745355 17.8947074,63.0011586 L17.8947074,63.0011586 Z M17.8224996,62.5864679 C17.8368166,62.6588566 17.8502622,62.7313688 17.8628363,62.8043751 C17.8502622,62.7314923 17.8368166,62.6588566 17.8224996,62.5864679 L17.8224996,62.5864679 Z M17.7319908,62.1784478 C17.7494203,62.2497247 17.7662273,62.3212487 17.7821628,62.3931432 C17.7663518,62.3212487 17.7494203,62.2497247 17.7319908,62.1784478 L17.7319908,62.1784478 Z M17.6234302,61.7772219 C17.6440965,61.84714 17.6642649,61.9173051 17.6833128,61.9882114 C17.6642649,61.9173051 17.6440965,61.84714 17.6234302,61.7772219 L17.6234302,61.7772219 Z M17.9792403,63.7646985 C17.9715215,63.6495684 17.9601923,63.5354265 17.9483652,63.4214082 C17.9516021,63.453279 17.956333,63.4846556 17.9594454,63.5165264 C17.9725175,63.6566096 18.0884234,63.7646985 18.2301001,63.7646985 L17.9792403,63.7646985 Z M15.7993122,58.4011429 C15.74055,58.3315954 15.6795468,58.2641479 15.6186682,58.1964534 C15.6795468,58.2641479 15.7404255,58.3315954 15.7993122,58.4011429 L15.7993122,58.4011429 Z M16.0545293,58.7155271 C16.0046064,58.6512914 15.952567,58.5887852 15.9010255,58.5257848 C15.9526915,58.5887852 16.0046064,58.6512914 16.0545293,58.7155271 L16.0545293,58.7155271 Z M16.2959274,59.0411526 C16.2511088,58.9779051 16.2041737,58.9161401 16.1578612,58.8541279 C16.2041737,58.9161401 16.2511088,58.9779051 16.2959274,59.0411526 L16.2959274,59.0411526 Z M16.5233819,59.3772781 C16.4821737,59.3136601 16.439347,59.2515244 16.3967693,59.1890182 C16.439347,59.2515244 16.4821737,59.3136601 16.5233819,59.3772781 L16.5233819,59.3772781 Z M16.7360214,59.7232861 C16.6985481,59.6591739 16.6590828,59.5962971 16.6201155,59.5331732 C16.6590828,59.5962971 16.6985481,59.6591739 16.7360214,59.7232861 L16.7360214,59.7232861 Z M16.9338458,60.0791764 C16.8996094,60.0141996 16.86363,59.950211 16.8277751,59.8860988 C16.86363,59.950211 16.8996094,60.0141996 16.9338458,60.0791764 L16.9338458,60.0791764 Z M17.1162327,60.444208 C17.0849842,60.3779959 17.0522417,60.3128955 17.0194992,60.2476716 C17.0522417,60.3128955 17.0849842,60.3779959 17.1162327,60.444208 L17.1162327,60.444208 Z M17.2829331,60.8180103 C17.254797,60.7508099 17.2250424,60.6843506 17.1952878,60.6178914 C17.2250424,60.6843506 17.254797,60.7508099 17.2829331,60.8180103 L17.2829331,60.8180103 Z M17.4332,61.2003361 C17.4080518,61.1319004 17.3815341,61.0640823 17.3547674,60.9963878 C17.3815341,61.0640823 17.4080518,61.1319004 17.4332,61.2003361 L17.4332,61.2003361 Z M17.5667844,61.5904443 C17.5447486,61.5207733 17.5213433,61.4518435 17.497689,61.3829137 C17.5213433,61.4518435 17.5447486,61.5207733 17.5667844,61.5904443 L17.5667844,61.5904443 Z M14.6507104,57.2612066 C14.7200548,57.3192658 14.7874072,57.3793015 14.8551331,57.4390901 C14.7874072,57.3793015 14.7200548,57.3191423 14.6507104,57.2612066 L14.6507104,57.2612066 Z M14.956224,57.5274141 C15.1559159,57.709374 15.3477645,57.899734 15.5311474,58.0978763 C15.3477645,57.899734 15.1559159,57.709374 14.956224,57.5274141 L14.956224,57.5274141 Z M14.0053222,56.7684449 C14.0693132,56.8130392 14.1315613,56.8596101 14.1943074,56.9056869 C14.1315613,56.8596101 14.0693132,56.8130392 14.0053222,56.7684449 L14.0053222,56.7684449 Z M13.6665681,56.5428788 C13.7308081,56.5836438 13.7935542,56.6262617 13.8566738,56.668509 C13.7935542,56.6262617 13.7308081,56.5836438 13.6665681,56.5428788 L13.6665681,56.5428788 Z M13.3178543,56.3317658 C13.3825923,56.3690719 13.4462099,56.4082309 13.5099519,56.4470194 C13.4462099,56.4082309 13.3825923,56.3690719 13.3178543,56.3317658 L13.3178543,56.3317658 Z M12.9593053,56.1354764 C13.0249148,56.1695707 13.0895283,56.2052709 13.1542663,56.2409711 C13.0895283,56.2052709 13.0249148,56.1695707 12.9593053,56.1354764 L12.9593053,56.1354764 Z M12.5912946,55.9543812 C12.6581491,55.9855108 12.723883,56.0181227 12.789866,56.0507347 C12.723883,56.0181227 12.6581491,55.9855108 12.5912946,55.9543812 L12.5912946,55.9543812 Z M12.2145692,55.7890978 C12.2824196,55.8171392 12.349523,55.8466629 12.4166265,55.8761866 C12.349523,55.8466629 12.2824196,55.8171392 12.2145692,55.7890978 L12.2145692,55.7890978 Z M11.829378,55.6399969 C11.8983489,55.66495 11.9666973,55.6912619 12.0349212,55.7179445 C11.9666973,55.6912619 11.8983489,55.66495 11.829378,55.6399969 L11.829378,55.6399969 Z M11.4360946,55.5074491 C11.5063104,55.5293139 11.5759038,55.5525376 11.6454971,55.5760083 C11.5759038,55.5525376 11.5063104,55.5293139 11.4360946,55.5074491 L11.4360946,55.5074491 Z M11.0354658,55.3919484 C11.1068022,55.4108485 11.1773915,55.4307369 11.2479808,55.4511193 C11.1773915,55.4307369 11.1066777,55.4108485 11.0354658,55.3919484 L11.0354658,55.3919484 Z M10.6274919,55.2937419 C10.6998241,55.3095538 10.7716584,55.3262303 10.8433682,55.3435246 C10.7716584,55.3262303 10.6998241,55.3095538 10.6274919,55.2937419 L10.6274919,55.2937419 Z M10.2129196,55.2136944 C10.2862478,55.2261709 10.3593271,55.2395122 10.4320329,55.2537182 C10.3593271,55.2395122 10.2862478,55.2261709 10.2129196,55.2136944 L10.2129196,55.2136944 Z M9.79187351,55.1519293 C9.86632223,55.1610705 9.94052195,55.1709529 10.0143482,55.1819471 C9.94052195,55.1709529 9.86632223,55.1610705 9.79187351,55.1519293 L9.79187351,55.1519293 Z M14.3334941,57.0079698 C14.3981077,57.0575054 14.4609782,57.108894 14.5242223,57.1597884 C14.4609782,57.108894 14.3981077,57.0575054 14.3334941,57.0079698 L14.3334941,57.0079698 Z M9.2449618,54.849404 C9.2449618,54.9898577 9.35402045,55.1048643 9.49495012,55.117835 C9.52707014,55.1207997 9.55869217,55.1256174 9.59068769,55.1288292 C9.47590221,55.1172173 9.36086774,55.1058526 9.2449618,55.0981937 L9.2449618,54.849404 Z M9.80917848,16.8458472 C9.76784575,16.8510354 9.727011,16.8579531 9.68555377,16.8625237 C9.727011,16.8579531 9.76784575,16.8510354 9.80917848,16.8458472 L9.80917848,16.8458472 Z M10.2536298,16.7788938 C10.2093092,16.7866762 10.1654865,16.795941 10.1209169,16.8031057 C10.1654865,16.7960645 10.2093092,16.7866762 10.2536298,16.7788938 L10.2536298,16.7788938 Z M10.6767924,16.6947698 C10.6345882,16.7042816 10.5928819,16.7151523 10.5503042,16.7239229 C10.5928819,16.7151523 10.6345882,16.7042816 10.6767924,16.6947698 L10.6767924,16.6947698 Z M11.0865093,16.5939692 C11.0487869,16.6040986 11.0116871,16.6155869 10.9737157,16.6253458 C11.0116871,16.6155869 11.0487869,16.6040986 11.0865093,16.5939692 L11.0865093,16.5939692 Z M11.488383,16.4755038 C11.455516,16.4860038 11.4232714,16.4974921 11.39028,16.5077451 C11.4232714,16.4976157 11.455516,16.4860038 11.488383,16.4755038 L11.488383,16.4755038 Z M11.8824134,16.3399912 C11.8546507,16.3502442 11.827386,16.3613619 11.7993744,16.3713678 C11.827386,16.3613619 11.8546507,16.3502442 11.8824134,16.3399912 L11.8824134,16.3399912 Z M12.268476,16.1876785 C12.2456932,16.1973139 12.2234084,16.2075669 12.2006256,16.2169552 C12.2234084,16.2075669 12.2456932,16.1973139 12.268476,16.1876785 L12.268476,16.1876785 Z M12.6463219,16.0189363 C12.628519,16.0273364 12.611214,16.0363541 12.593411,16.0446306 C12.611214,16.0363541 12.628519,16.0273364 12.6463219,16.0189363 L12.6463219,16.0189363 Z M13.0163246,15.8337646 C13.003128,15.8406823 12.9901804,15.8480941 12.9768593,15.8551353 C12.9901804,15.8480941 13.003128,15.8406823 13.0163246,15.8337646 L13.0163246,15.8337646 Z M13.3784839,15.6319164 C13.3691467,15.6374752 13.3598095,15.6432811 13.3504723,15.6487165 C13.3598095,15.6432811 13.3691467,15.6374752 13.3784839,15.6319164 L13.3784839,15.6319164 Z M13.7314306,15.4143798 C13.7254548,15.4182092 13.7196035,15.4222857 13.7136277,15.4261151 C13.7196035,15.4222857 13.7254548,15.4182092 13.7314306,15.4143798 L13.7314306,15.4143798 Z M17.889354,9.03849455 C17.9027996,8.95227051 17.9141288,8.86530528 17.9250844,8.77834005 C17.9141288,8.86542881 17.9027996,8.95227051 17.889354,9.03849455 L17.889354,9.03849455 Z M17.9428874,8.63998628 C17.9577024,8.50583254 17.9702765,8.37106115 17.9792403,8.23530151 C17.9702765,8.37106115 17.9577024,8.50583254 17.9428874,8.63998628 L17.9428874,8.63998628 Z M294.105168,8.99921196 C294.094088,8.92558799 294.084004,8.85184049 294.074791,8.77784593 C294.084128,8.85184049 294.094088,8.92558799 294.105168,8.99921196 L294.105168,8.99921196 Z M294.177376,9.41353209 C294.163183,9.34114342 294.149738,9.26838416 294.137039,9.19537784 C294.149738,9.26838416 294.163183,9.34114342 294.177376,9.41353209 L294.177376,9.41353209 Z M294.268009,9.82142865 C294.250455,9.75027528 294.233648,9.67899838 294.217837,9.60710384 C294.233648,9.67899838 294.250455,9.75027528 294.268009,9.82142865 L294.268009,9.82142865 Z M294.376321,10.2227781 C294.355779,10.1527365 294.335735,10.0825714 294.316687,10.0120357 C294.335735,10.0825714 294.355779,10.1527365 294.376321,10.2227781 L294.376321,10.2227781 Z M294.502311,10.6170863 C294.478532,10.5482801 294.455251,10.4792267 294.433091,10.4096792 C294.455251,10.4792267 294.478532,10.5482801 294.502311,10.6170863 L294.502311,10.6170863 Z M294.645233,11.0037357 C294.618341,10.9359177 294.591824,10.8680996 294.566675,10.7996639 C294.591824,10.8680996 294.618341,10.9359177 294.645233,11.0037357 L294.645233,11.0037357 Z M294.804588,11.3822321 C294.774958,11.3157729 294.745203,11.2491901 294.716942,11.1819897 C294.745203,11.2491901 294.774958,11.3157729 294.804588,11.3822321 L294.804588,11.3822321 Z M294.980501,11.752699 C294.947758,11.6873516 294.914891,11.6220041 294.883518,11.555792 C294.914891,11.6220041 294.947758,11.6873516 294.980501,11.752699 L294.980501,11.752699 Z M295.172474,12.1143953 C295.136494,12.0501596 295.100391,11.9860475 295.06603,11.9208236 C295.100391,11.985924 295.136494,12.0501596 295.172474,12.1143953 L295.172474,12.1143953 Z M294.020635,8.23530151 C294.028354,8.35055514 294.039808,8.464697 294.05151,8.57871533 C294.048273,8.54684455 294.043543,8.51546789 294.040555,8.48359711 C294.027483,8.34351392 293.911577,8.23530151 293.7699,8.23530151 L294.020635,8.23530151 Z M295.379885,12.4670739 C295.340793,12.4038265 295.301452,12.3408261 295.263854,12.2765904 C295.301452,12.3408261 295.340793,12.4038265 295.379885,12.4670739 L295.379885,12.4670739 Z M295.603106,12.8109818 C295.560653,12.7484756 295.517702,12.6863399 295.476618,12.6228454 C295.517702,12.6863399 295.560653,12.7484756 295.603106,12.8109818 L295.603106,12.8109818 Z M295.841765,13.1455015 C295.795453,13.0836129 295.748767,13.0219713 295.703948,12.9588474 C295.748767,13.0219713 295.795453,13.0836129 295.841765,13.1455015 L295.841765,13.1455015 Z M296.098974,13.4742152 C296.047433,13.4113384 295.995518,13.3488321 295.945471,13.2845964 C295.995518,13.3488321 296.047433,13.4113384 296.098974,13.4742152 L296.098974,13.4742152 Z M296.380709,13.8029289 C296.32008,13.7353579 296.259201,13.6681575 296.200439,13.5988571 C296.259201,13.6681575 296.32008,13.7353579 296.380709,13.8029289 L296.380709,13.8029289 Z M298.490422,15.5532277 C298.554039,15.5920161 298.617283,15.6310516 298.682021,15.6682342 C298.617283,15.6310516 298.554039,15.5920161 298.490422,15.5532277 L298.490422,15.5532277 Z M298.143824,15.3318616 C298.20657,15.3739854 298.269192,15.4164798 298.333183,15.4571212 C298.269192,15.4164798 298.20657,15.3739854 298.143824,15.3318616 L298.143824,15.3318616 Z M297.806689,15.0950543 C297.868937,15.140884 297.930936,15.1870843 297.994304,15.2315551 C297.930936,15.1870843 297.868937,15.140884 297.806689,15.0950543 L297.806689,15.0950543 Z M297.34929,14.7387934 C297.280319,14.6812283 297.21334,14.6215633 297.146112,14.5620217 C297.21334,14.6215633 297.280319,14.6812283 297.34929,14.7387934 L297.34929,14.7387934 Z M297.666381,14.9919066 C297.601892,14.9426181 297.539146,14.8913531 297.476027,14.8405822 C297.539146,14.8913531 297.601892,14.9426181 297.666381,14.9919066 L297.666381,14.9919066 Z M297.043776,14.4725859 C296.943806,14.3816677 296.845827,14.288773 296.749965,14.1936548 C296.654227,14.0985366 296.560482,14.0013184 296.468853,13.9022472 C296.560482,14.0013184 296.654227,14.0985366 296.749965,14.1936548 C296.845827,14.288773 296.943806,14.3816677 297.043776,14.4725859 L297.043776,14.4725859 Z M17.8268569,9.38969077 C17.8389331,9.32817275 17.8505112,9.26665474 17.8612179,9.2046426 C17.8506357,9.26529591 17.840427,9.32607274 17.8287244,9.38635546 L17.8268569,9.38969077 Z M298.672684,56.3374482 C298.538602,56.414778 298.407258,56.4960609 298.277533,56.5796908 L298.616412,56.0076227 C298.54022,56.1799472 298.458302,56.3493071 298.373271,56.5169375 C298.471747,56.4550489 298.571842,56.3956309 298.672684,56.3374482 L298.672684,56.3374482 Z M303.377519,15.6867637 C298.893291,15.6867637 295.24518,12.0670833 295.24518,7.61765075 L295.24518,7 L16.7546958,7 L16.7546958,7.61765075 C16.7546958,12.0670833 13.1065843,15.6867637 8.6224809,15.6867637 L8,15.6867637 L8,56.3132363 L8.6224809,56.3132363 C13.1065843,56.3132363 16.7546958,59.9330403 16.7546958,64.3823492 L16.7546958,65 L76.1788388,65 L77.5535256,65 L295.24518,65 L295.24518,64.3823492 C295.24518,59.9330403 298.893291,56.3132363 303.377519,56.3132363 L304,56.3132363 L304,15.6867637 L303.377519,15.6867637 Z" id="Fill-3" fill="#FFFFFF"></path>
                </g>
                <text font-family="SourceHanSerifCN-Medium, Source Han Serif CN" font-size="34" font-weight="400" fill="#75675C">
                    <tspan x="108.747" y="50">Login</tspan>
                </text>
            </g>
        </g>
    </g>
</svg>